<?xml version="1.0" encoding="utf-8" ?>
<svg baseProfile="tiny" height="400" version="1.2" width="400" xmlns="http://www.w3.org/2000/svg" xmlns:ev="http://www.w3.org/2001/xml-events" xmlns:xlink="http://www.w3.org/1999/xlink"><defs /><circle cx="200" cy="200" fill="#FFF5F7" r="180" stroke="#FFE4EC" stroke-width="2" /><path d="M 120 280 Q 80 200 140 140 Q 200 80 260 120 Q 300 150 280 200 Q 260 250 200 240 Q 160 230 140 280 Z" fill="#FF6B9D" stroke="#E85A8A" stroke-width="3" /><path d="M 140 140 Q 170 130 200 145" fill="none" stroke="#FF8FB3" stroke-linecap="round" stroke-width="4" /><path d="M 160 170 Q 190 160 220 175" fill="none" stroke="#FF8FB3" stroke-linecap="round" stroke-width="4" /><path d="M 180 200 Q 210 190 240 205" fill="none" stroke="#FF8FB3" stroke-linecap="round" stroke-width="4" /><path d="M 140 140 Q 100 100 80 130 Q 70 150 90 160 Q 110 170 130 150" fill="#FF1744" stroke="#D50000" stroke-width="2" /><path d="M 260 120 Q 300 80 320 110 Q 330 130 310 140 Q 290 150 270 130" fill="#FF1744" stroke="#D50000" stroke-width="2" /><circle cx="170" cy="115" fill="#FFFFFF" r="12" stroke="#2C3E50" stroke-width="2" /><circle cx="172" cy="115" fill="#2C3E50" r="6" /><circle cx="174" cy="113" fill="white" r="2" /><circle cx="210" cy="115" fill="#FFFFFF" r="12" stroke="#2C3E50" stroke-width="2" /><circle cx="212" cy="115" fill="#2C3E50" r="6" /><circle cx="214" cy="113" fill="white" r="2" /><path d="M 170 100 Q 160 60 140 50" fill="none" stroke="#E85A8A" stroke-linecap="round" stroke-width="2" /><path d="M 210 100 Q 220 60 240 50" fill="none" stroke="#E85A8A" stroke-linecap="round" stroke-width="2" /><path d="M 175 135 Q 190 145 205 135" fill="none" stroke="#2C3E50" stroke-linecap="round" stroke-width="2" /><line stroke="#E85A8A" stroke-linecap="round" stroke-width="3" x1="150" x2="135" y1="200" y2="210" /><line stroke="#E85A8A" stroke-linecap="round" stroke-width="3" x1="160" x2="145" y1="220" y2="230" /><line stroke="#E85A8A" stroke-linecap="round" stroke-width="3" x1="170" x2="155" y1="235" y2="245" /><line stroke="#E85A8A" stroke-linecap="round" stroke-width="3" x1="230" x2="245" y1="205" y2="215" /><line stroke="#E85A8A" stroke-linecap="round" stroke-width="3" x1="220" x2="235" y1="220" y2="230" /><line stroke="#E85A8A" stroke-linecap="round" stroke-width="3" x1="210" x2="225" y1="235" y2="245" /><text fill="#FF6B9D" font-family="Arial, sans-serif" font-size="32" font-weight="bold" text-anchor="middle" x="200" y="340">Shrimp</text><text fill="#4ECDC4" font-family="Arial, sans-serif" font-size="24" text-anchor="middle" x="200" y="375">Clan</text></svg>