<?xml version="1.0" encoding="utf-8" ?>
<svg baseProfile="tiny" height="600" version="1.2" width="600" xmlns="http://www.w3.org/2000/svg" xmlns:ev="http://www.w3.org/2001/xml-events" xmlns:xlink="http://www.w3.org/1999/xlink"><defs /><rect fill="#0D1117" height="600" width="600" x="0" y="0" /><path d="M 0.0 0.0 L 0.4858925902019857 30.498907090749693 L 0.18718756203624998 59.98059392600323 L -0.04163783542228994 90.19474876192334 L 0.00978127333006018 120.1071563785555 L -0.1794017972153713 150.24677457699354 L -0.48499311364946895 179.93150391360666 L 0.2624387959164254 210.2579891052848 L -0.3612634628396696 240.47668704950436 L -0.3263401359168976 269.7845527053066 L 0.3206503845337456 300.3655623110358 L -0.32726406430559574 330.4681133166309 L -0.49459779901966106 359.7150343775872 L -0.32465841171440146 390.45868794602137 L 0.2786104227561429 419.5334999836261 L -0.34673650475425655 449.6833280574297 L 0.47188096520737455 480.1208861323416 L -0.3627338746876696 510.37058176812656 L -0.3529003795863961 540.3514255941141 L 0.3740443752980407 570.0276630194118 L 0.0 600.0" fill="none" opacity="0.5" stroke="#21262D" stroke-width="0.5" /><path d="M 30.0 0.0 L 29.57351307664822 30.4117869117787 L 29.990214253631354 59.9034261381319 L 29.897530155840897 89.51684336554109 L 30.094920262444028 120.28124118636778 L 29.772516272685095 150.0284147948517 L 30.06291722286076 180.3331163177545 L 30.362680964261976 209.89803333275918 L 30.425460766624155 239.60275087636836 L 30.304349474920713 270.2439647318291 L 29.91319746402097 300.17660812207913 L 30.299641658361125 329.8330123956216 L 30.357340798902115 359.94269321548313 L 30.119057635161912 389.57781408687543 L 30.24695151532564 419.7988685093776 L 29.65798441354241 450.2351784831928 L 30.130423083672735 479.8701716611826 L 30.136946515032616 509.9743766913191 L 30.179794087520545 539.6245789206531 L 29.879327338627522 570.0782423635375 L 30.0 600.0" fill="none" opacity="0.5" stroke="#21262D" stroke-width="0.5" /><path d="M 60.0 0.0 L 60.09040146779511 30.053792382089693 L 59.999008085655866 59.82162120835246 L 60.45685495310127 90.09110187906938 L 60.19502189097763 119.95389077222758 L 59.89267285898739 150.27519852710012 L 60.29130742647045 179.76384084018977 L 59.80040004491812 209.67400019655062 L 59.61679813029522 239.57810168285482 L 59.65039484177848 269.79808559421394 L 59.777737267273885 300.3562888871793 L 59.610661186669105 329.520487102148 L 59.630820200486866 360.30672225463155 L 59.90460570640495 389.53604566568157 L 60.15579011041123 419.66494591077674 L 60.314443627042344 450.45725818643984 L 59.865230233391046 479.637114730481 L 60.35950548826624 510.283206408506 L 59.924187729650946 539.7838857836716 L 59.66738353474387 570.3747692755097 L 60.0 600.0" fill="none" opacity="0.5" stroke="#21262D" stroke-width="0.5" /><path d="M 90.0 0.0 L 90.17101735627737 29.938743226064435 L 90.45283270113661 59.74591968037395 L 90.06090388422419 89.66131515327767 L 90.39291292961884 119.63186031188201 L 90.34405681881451 149.75200105230573 L 89.50060064069305 180.02272176034856 L 89.70133478312916 209.8579726169887 L 89.6088936487769 239.56644965304957 L 90.48374360205531 270.3206902538147 L 90.02492903771048 300.1594934661945 L 90.2396246998844 329.52478058998173 L 90.37251963575684 359.7592906663409 L 89.5460755763109 389.86664728210496 L 89.80517968755834 419.59995866686967 L 90.10880137439543 450.25640802232573 L 90.20240320557599 480.1354008400463 L 90.4163268921566 510.45164194785406 L 89.70085939035812 539.669088054281 L 90.05793316739744 569.7371337963751 L 90.0 600.0" fill="none" opacity="0.5" stroke="#21262D" stroke-width="0.5" /><path d="M 120.0 0.0 L 120.1547132088943 30.08093673510042 L 120.20865172299777 60.30412200021434 L 119.64550061103073 89.90010652164727 L 119.95363182957877 120.14755588075316 L 119.60299967071515 149.622732855933 L 119.7411053720607 179.64300236008447 L 120.31227252190934 209.586923128278 L 119.59099586015147 240.23356604812489 L 119.71596808516493 270.1575863614677 L 120.17683183830721 300.04272055422064 L 119.66671221203755 330.05235013114014 L 120.22357007331233 359.727927779674 L 119.90872495996116 390.0487913363965 L 119.70191876154557 420.3058776209454 L 120.35374173053863 450.491236563287 L 120.38700860142484 479.95160651931735 L 119.68295824791028 509.5247300031353 L 120.03219168082049 540.0315525688244 L 120.10662683157386 569.5797346256389 L 120.0 600.0" fill="none" opacity="0.5" stroke="#21262D" stroke-width="0.5" /><path d="M 150.0 0.0 L 149.99684014907132 29.747030231680924 L 150.45623586920837 60.15376646968289 L 149.5012359338152 90.4210792041686 L 150.2433988259926 120.4009262330204 L 150.17477387836934 149.73866826059626 L 149.68743960283035 179.7079905347999 L 150.18166631095065 209.55718894756717 L 150.08603932744074 239.6223459983699 L 150.3747076722289 269.9709139810125 L 149.9977429223644 300.17079387377396 L 149.83461171787684 329.6447092071325 L 149.96186544846478 360.4470279796101 L 149.89187395156995 390.1354489765925 L 149.9450625686444 420.113900298916 L 150.22528461297227 449.94251116969707 L 150.32702998553356 480.05650791535834 L 150.154481573316 509.63562890982325 L 149.80134287737144 539.5575432232487 L 149.88261157733479 570.1886753197731 L 150.0 600.0" fill="none" opacity="0.5" stroke="#21262D" stroke-width="0.5" /><path d="M 180.0 0.0 L 180.15691619702724 29.73077702621786 L 180.3374606848001 60.22305228966537 L 179.65339154654987 90.12088154332822 L 179.5787761387512 120.28062944910566 L 179.80582660935616 150.05399452468149 L 179.76702856893436 180.1466328143569 L 180.40845741715557 210.07588842622874 L 179.90463400682808 239.79393744189005 L 180.22623782720987 269.7612307554911 L 179.53992250140826 300.491472808522 L 179.78462659825513 330.41709677078177 L 180.08481646288547 359.7401617348837 L 179.8672079403289 390.1457587890981 L 180.10325733083258 420.09473328462406 L 180.05495668081733 449.92916825445343 L 180.45359255838582 480.1358247564285 L 180.21229877869416 510.2332379814655 L 180.1158231480487 539.9788820927897 L 180.21472506994016 570.085437156069 L 180.0 600.0" fill="none" opacity="0.5" stroke="#21262D" stroke-width="0.5" /><path d="M 210.0 0.0 L 210.11020556222786 30.238376658882608 L 210.32340223944843 59.55237176616709 L 210.08241854696482 89.59220270894235 L 210.40252418807364 119.84698334844204 L 210.3558976713818 150.24246888690467 L 210.447481737612 179.6982241069222 L 209.6198126657818 209.68693154009276 L 209.69918869440937 239.52003745336842 L 209.79672436944333 269.724692136997 L 210.35047754875538 299.8512965295445 L 209.70434260875987 329.91640661087234 L 209.92255092586143 359.6235040466645 L 210.47323722791134 390.1162330880654 L 209.81981709577514 419.8366196325571 L 209.51318686914834 449.82176458908833 L 210.4500263347157 480.0000850085842 L 210.4896760637384 509.5122706270045 L 210.05691180772354 540.2874672017091 L 209.8214591738337 569.8080234927776 L 210.0 600.0" fill="none" opacity="0.5" stroke="#21262D" stroke-width="0.5" /><path d="M 240.0 0.0 L 240.22040957281857 29.659434007584345 L 239.85765458881886 59.81052973336718 L 239.76482611981496 89.97714708783032 L 240.07522091405625 119.58100688133686 L 239.73074383353855 150.01621139524028 L 239.85753619929233 179.65715164341123 L 239.66386159526465 209.90705159009784 L 240.01987639549944 240.44688854938374 L 239.66481625563378 269.8080908353403 L 240.40326018470526 300.4047649176959 L 239.7023963240771 330.33789894106155 L 239.67218082834674 359.5474015696171 L 240.31204579440382 390.20591514232746 L 240.44564223877467 420.0766427679158 L 239.54974313624874 449.9546286757289 L 240.2405459995501 480.32599617160446 L 240.24237696827998 510.32788586127475 L 240.1618327059021 540.4349303971877 L 240.4204466327484 570.1706952944558 L 240.0 600.0" fill="none" opacity="0.5" stroke="#21262D" stroke-width="0.5" /><path d="M 270.0 0.0 L 269.59941460284307 30.064338299632524 L 269.7192141083462 59.630467129445286 L 270.0884323099551 90.37208474720512 L 269.79907254974734 119.95896038752113 L 269.86898661199456 150.1312288363208 L 269.7998997778609 180.33420700422843 L 270.2505061937792 210.01990438464887 L 269.92247462515564 239.88840819441194 L 270.223931920096 270.24701022997164 L 269.5139216172464 299.71397625999003 L 270.28910605424085 330.34289273152945 L 270.0656996117669 359.8445053825312 L 270.09555410097636 390.0496093537015 L 270.05956812529996 419.5184357988326 L 269.92737284520325 449.6113306165867 L 270.4921686639668 480.27651974078725 L 269.9809076901564 510.1947894551174 L 270.1196050046013 540.4442030372918 L 270.14527450253536 570.273478146548 L 270.0 600.0" fill="none" opacity="0.5" stroke="#21262D" stroke-width="0.5" /><path d="M 300.0 0.0 L 299.5822291091701 30.485493498660567 L 299.8582269344881 59.5728550098069 L 300.0371022558192 89.77799798399917 L 299.9469963225853 119.78519701579171 L 300.1003614650687 149.87370400200766 L 299.8741442227565 179.85501565433518 L 299.810288061343 210.0400570811824 L 300.3145218333402 239.81504253648416 L 300.3448264024049 269.5166366579267 L 300.38164953325565 300.35665005870806 L 299.7392421278491 330.0181238546359 L 300.16629126376176 360.2043120925492 L 300.0797172463477 389.63064935345335 L 300.2367630775494 419.70229726671806 L 299.9090868430227 450.100884998396 L 299.67864062269734 480.001216662531 L 300.1582234102561 510.26792763099064 L 300.0826070108167 540.4660727225889 L 299.8234130754105 570.1386105060251 L 300.0 600.0" fill="none" opacity="0.5" stroke="#21262D" stroke-width="0.5" /><path d="M 330.0 0.0 L 330.01106684965157 29.840555360612925 L 329.6019564417348 59.95976691275374 L 329.7843995172154 90.43745721865788 L 330.3498459150887 120.01280400829117 L 329.5084317173643 150.0057802029255 L 330.20322998148623 180.36340413021176 L 330.2004179851905 210.40405500584083 L 329.8147288869548 240.0740162173042 L 330.39350432607506 269.9855869064901 L 330.01944152873443 300.0120073921315 L 330.04643016424416 329.88031588665774 L 329.5910098897017 360.032332086375 L 330.0953486924409 389.8166069828516 L 330.0490097409515 420.38830382418416 L 330.1499863584459 450.2408602341347 L 329.5962520739982 479.9089294526501 L 330.3403318231672 509.9107748933204 L 330.2794745077605 540.1370947716699 L 330.1589618899299 569.6303097978986 L 330.0 600.0" fill="none" opacity="0.5" stroke="#21262D" stroke-width="0.5" /><path d="M 360.0 0.0 L 360.04420115957225 29.857057355045256 L 359.7053910527866 60.364549039495394 L 359.9127499221615 90.38296058983298 L 359.98319996692584 120.28746537276675 L 359.7613922714112 150.00079804332017 L 360.18731230379655 180.33065953029316 L 359.5590871182493 209.84530414169808 L 360.17030749234243 239.71230882076574 L 359.5460479151762 269.6245609422753 L 359.58251827978347 300.387333959214 L 360.0694341769532 329.8377475314965 L 359.8669663603025 360.05622426584296 L 360.30473052010257 389.78755611158243 L 360.3764367289297 419.8245766853145 L 360.4408784688017 450.29479802834993 L 359.53596746888445 479.84196330333964 L 359.89256864923505 510.2472181345339 L 359.79820833537576 540.4502940879006 L 359.82001318965143 570.4588266459025 L 360.0 600.0" fill="none" opacity="0.5" stroke="#21262D" stroke-width="0.5" /><path d="M 390.0 0.0 L 389.9653267243762 29.842804491388357 L 389.80323120085717 60.382141195715285 L 390.3259499700241 90.03682025306036 L 390.05183929799034 120.14562441378708 L 389.8039224157672 150.2615574466585 L 389.59540711201976 180.1086032281346 L 389.5555608454463 210.19161825682338 L 390.4255290061357 239.80066988877402 L 390.4396070280479 270.36683930604653 L 389.6795509403142 300.06153203175506 L 390.3538966794795 330.4991350017242 L 389.7330330663269 359.7813606244515 L 390.3220308031444 389.65967335932953 L 389.7581522647454 420.4412027333953 L 389.8793851220283 450.0603150519209 L 389.5345257312069 479.82214075331655 L 389.5746989569944 509.6804530458041 L 389.8476615335909 539.940323477377 L 389.80573203266573 569.7300528502999 L 390.0 600.0" fill="none" opacity="0.5" stroke="#21262D" stroke-width="0.5" /><path d="M 420.0 0.0 L 420.1999160919306 29.932012108551103 L 420.24255679911886 60.081300046472535 L 419.74112197988217 89.57373248763204 L 419.91863765334136 119.8968823238385 L 420.13391013045475 150.16310067304045 L 419.9015091036381 180.14457400442106 L 420.108017435177 209.5518073215918 L 420.3037515628992 240.49572879102266 L 420.4729927160146 269.5135890006943 L 420.15190911145197 300.073558541306 L 420.4771885171706 329.7426182637471 L 420.11063028934154 359.83691293177327 L 420.21488590782747 390.0221435053744 L 420.4069839059991 420.1427638156235 L 419.5267772916606 450.17050873277276 L 420.30197276597903 480.06613340408535 L 419.91123483316017 509.95890403855117 L 419.5316833701906 540.0716324868044 L 420.37205541427664 569.5198661603329 L 420.0 600.0" fill="none" opacity="0.5" stroke="#21262D" stroke-width="0.5" /><path d="M 450.0 0.0 L 450.2376397218227 30.457052078043226 L 450.10592061491 60.27854790892839 L 450.3690905124012 89.59146216620461 L 449.54062784124903 120.42415534096912 L 449.8401542345414 150.1704963449355 L 450.36634123643586 180.46178360277807 L 450.01415656537904 209.937833522434 L 450.0383701939919 239.56111575336982 L 450.09949175443506 269.5705962962274 L 449.726920528958 300.057115716613 L 449.6627966985944 329.55957833477555 L 450.4866365789425 359.67621737755485 L 450.2678932038449 390.3364023260831 L 449.8530495884692 419.52318004849985 L 450.22428346526755 450.4083424550335 L 449.675448970697 480.24853432574287 L 450.2610289243977 510.0793680067247 L 449.59324874862983 540.1271884680554 L 449.5617053001041 570.0960748372047 L 450.0 600.0" fill="none" opacity="0.5" stroke="#21262D" stroke-width="0.5" /><path d="M 480.0 0.0 L 479.9682011297667 30.37590325416479 L 479.90593237493374 59.552332131541505 L 480.30464323508886 89.7205139933066 L 479.8061871176853 120.4026565605461 L 480.48250332915734 150.0140853062219 L 479.83450387807426 180.45336682689316 L 480.36674938317566 210.4127946971761 L 480.42718045382696 239.9295420746703 L 480.0395616435981 270.0162157454642 L 479.5733340682869 299.6680482873071 L 479.8260611052174 329.87898238588195 L 479.60348566330333 360.0850508339102 L 480.0303952440934 389.71093973047147 L 479.881769094862 420.2101725403674 L 479.74204790282334 449.8313210075497 L 480.4448152782362 479.5109570124749 L 479.78770248712635 510.2216512281174 L 479.9809704276334 539.5696406131284 L 479.6392375741967 569.6982140976093 L 480.0 600.0" fill="none" opacity="0.5" stroke="#21262D" stroke-width="0.5" /><path d="M 510.0 0.0 L 510.47142937141547 29.982514689596826 L 509.58846224905955 60.4814845128319 L 510.3912731435008 90.10004502967642 L 509.8603867341992 119.79855756120236 L 509.9224417856687 150.16614576867389 L 509.91086072770753 180.24779283974095 L 510.36985008512806 210.162328929376 L 509.61438623203026 240.08046452199613 L 509.72010856904006 269.55709111938796 L 509.81347982578825 299.8675961890048 L 509.890878133281 329.8171363443127 L 510.2685275273347 360.3115831202115 L 510.1849600833589 390.42932010144415 L 509.7933289254549 419.88678447904243 L 510.4507888731252 449.9557664638336 L 509.6011301994899 480.18780937020574 L 510.2455086033157 510.07857128239283 L 509.71158261466275 539.8079614018612 L 509.8772528982637 569.7821086467803 L 510.0 600.0" fill="none" opacity="0.5" stroke="#21262D" stroke-width="0.5" /><path d="M 540.0 0.0 L 539.6649607043638 29.58869064093222 L 540.1052620734754 59.69300371473061 L 540.2793291206814 89.64989104517471 L 540.4821347370054 120.36671274431299 L 539.7297148840304 150.43512406071113 L 539.8048100459978 179.67409374761772 L 539.8082025296715 209.9627765203676 L 539.9879645122699 240.19236906254235 L 539.684593186903 269.5836149168654 L 539.8694741988683 300.35081336761715 L 540.0111532433523 329.7344768415821 L 540.4029038073786 359.7205916165355 L 540.4979667258467 389.7951244290352 L 540.421967341942 419.6827431280656 L 540.4073024733747 450.07582161825485 L 540.0496713484928 480.30066078119114 L 539.5417442686156 510.0933680829518 L 539.5305007956146 539.9978630548042 L 540.2481356418884 569.6494162429303 L 540.0 600.0" fill="none" opacity="0.5" stroke="#21262D" stroke-width="0.5" /><path d="M 570.0 0.0 L 570.4304572172026 29.819977748234656 L 570.0973482015537 60.43405177912632 L 570.1973338038197 90.00568517328777 L 569.5468859012012 120.22475864013951 L 569.8528476114848 150.35758013824574 L 570.1970662152796 180.09265861508374 L 570.4296696579753 209.52457792720048 L 570.2788492132927 240.33137011494887 L 569.8203553012866 270.30569621616206 L 570.4419669961416 300.330302974551 L 569.6008382104286 329.99658033528544 L 570.2657733436644 359.6227874565496 L 570.4074287128645 390.28325872344806 L 569.6105624151514 420.06249596321067 L 570.0118142058782 449.6462237921048 L 569.903147307861 480.22251772901836 L 570.1121275191433 509.8817359836486 L 569.9424233390007 540.0812890840162 L 570.2767190321026 569.9655618692769 L 570.0 600.0" fill="none" opacity="0.5" stroke="#21262D" stroke-width="0.5" /><path d="M 600.0 0.0 L 600.4628957171332 30.257431531303393 L 599.6701133370061 59.69238589317408 L 600.2845952250758 89.50191220796373 L 599.5283118108641 120.45200029428983 L 600.2808892448469 150.1546774716151 L 599.7660602957098 180.19932117941522 L 600.0640618048631 210.07209870668962 L 599.5432243642762 239.82125851104556 L 599.9609040559274 269.51456721101187 L 599.8909207353231 299.99487369239677 L 600.3178569246926 330.3531728526924 L 600.254070356337 360.32982674573736 L 599.813973525535 389.5862612625053 L 599.5682599375343 420.193776236557 L 600.3096242968991 450.4898371990793 L 600.3747503608487 480.08418105767964 L 600.1185645607455 509.91179751332214 L 600.4107891414793 539.580520873627 L 600.2733374093592 570.4170345260594 L 600.0 600.0" fill="none" opacity="0.5" stroke="#21262D" stroke-width="0.5" /><path d="M 0.0 0.0 L 30.22853882539376 0.2787865222731193 L 60.02508250084227 -0.2897157649632226 L 89.7997239316784 0.254674793253567 L 119.925848029009 -0.3903545555664072 L 150.09234604580016 0.19244046570765094 L 180.22421010108516 0.12978334626662402 L 209.52270708571538 0.07877118117921589 L 239.59877042735613 -0.07156270480275495 L 269.8965700352277 -0.22221271290901512 L 300.3677123763907 -0.08143252908530385 L 329.98673825054044 0.31025222534896246 L 359.616337426679 -0.08655968827478477 L 389.77981364851274 -0.4841930707404847 L 419.68523431545174 -0.2362026060422907 L 449.97566483218606 0.24286175290770196 L 479.76674062684594 -0.09429029857456284 L 510.4684199190697 -0.0786711438278076 L 540.1631349950216 0.041546913970544996 L 569.5337306429731 0.14424143932027245 L 600.0 0.0" fill="none" opacity="0.5" stroke="#21262D" stroke-width="0.5" /><path d="M 0.0 30.0 L 29.801679262538343 29.71318621009906 L 59.77256067625547 29.943665458359582 L 90.40479669172542 30.094519649858874 L 119.6137227052647 29.758765019180114 L 149.81153741285308 30.237952967113205 L 180.1851684948051 30.09785035920684 L 210.29592363900642 30.18315576240181 L 239.99580347371554 29.851060945806637 L 270.25330646557484 30.06400795785299 L 300.4464786808594 29.694047678473968 L 329.59960058227 29.851924012055886 L 360.3320371484207 30.357888638584186 L 389.6600623276184 29.723319812521268 L 419.5881862401581 29.6317502950126 L 450.23642377642113 30.095527507731838 L 480.38302937071126 29.992011785048003 L 510.4576482196464 29.78522059196979 L 540.1805773578835 30.299162482593836 L 570.2524445554574 30.29057292593542 L 600.0 30.0" fill="none" opacity="0.5" stroke="#21262D" stroke-width="0.5" /><path d="M 0.0 60.0 L 29.76970056515281 59.953329408751564 L 59.89177664749238 59.68734538939044 L 90.22786064977643 59.95491403982323 L 119.75020583642277 59.54769640514381 L 149.77936878815098 60.09104208104826 L 180.08957845426465 59.9367014352838 L 209.6767122811313 60.23028754302409 L 239.72172044904713 60.14414211303916 L 269.5082216470982 59.86903261753655 L 299.88039450179366 60.44478500769555 L 329.7259546628263 60.3695423121044 L 359.89593759563564 59.90714256238885 L 390.20629767799323 59.838661390800326 L 419.69576472842454 60.19299260734472 L 449.8802975230708 59.980235230958414 L 479.6582169535455 59.660583497074974 L 509.76128068997366 60.10333400948555 L 540.0885174606397 59.64607409001939 L 569.5058238791888 59.767983445982104 L 600.0 60.0" fill="none" opacity="0.5" stroke="#21262D" stroke-width="0.5" /><path d="M 0.0 90.0 L 30.457416470631777 89.93035211363856 L 59.88534461602067 89.85141406897814 L 89.85713890161095 89.53526038883109 L 119.78976555358845 90.20215992578356 L 149.50486855579388 89.74596103620374 L 179.9275728093476 89.82021662044717 L 209.8633314053965 89.83536356427251 L 240.14869290157222 90.0507268586234 L 269.98753314037145 90.334612960862 L 299.91185316216786 90.23644054884304 L 330.0914011661342 90.31557202706384 L 359.83645673645157 90.0586681508419 L 390.26743143807704 89.77467707120718 L 420.40800444619407 89.52413131755269 L 449.60644656019826 89.86257263006979 L 480.17832737977994 90.40707728284865 L 510.14994308809867 89.95600795371332 L 539.5140076823486 89.71405322107078 L 569.5908222038491 90.24565118757434 L 600.0 90.0" fill="none" opacity="0.5" stroke="#21262D" stroke-width="0.5" /><path d="M 0.0 120.0 L 29.591509156271915 120.21867554152655 L 60.38454385851808 119.94317514459176 L 89.57994846162488 119.66037766237737 L 119.61166028251074 120.15827200909406 L 149.95201371444614 120.15671126351823 L 180.30128424114213 119.77279042221325 L 209.7045378406581 120.13712182866861 L 240.4100244904777 119.64764522946146 L 269.51395331478784 120.02957868495584 L 299.74628977761535 120.1979480147105 L 329.5891001832056 119.90245065719796 L 360.1280835121842 120.00870253159522 L 389.86999553283033 120.04754124610982 L 420.2446074784273 119.86796873843771 L 450.1785482053056 119.7143705816856 L 480.05664093382865 120.44852455840926 L 509.91147058578935 119.82041521380035 L 540.371174821107 119.99270769269863 L 570.4736193355557 120.29530199258663 L 600.0 120.0" fill="none" opacity="0.5" stroke="#21262D" stroke-width="0.5" /><path d="M 0.0 150.0 L 29.578809486718413 149.64685472106942 L 60.02753197466286 149.82005136544942 L 89.8382345556232 149.8034808790761 L 120.09255359531615 150.1201926953873 L 150.0907223967142 149.74997525014808 L 179.76492656379085 150.4193054746251 L 209.5122776036188 150.36431603209815 L 239.65731485568102 149.53763862969672 L 270.17026220760187 149.79209629972027 L 299.576753752911 150.25188818670225 L 330.2380315813733 149.74723645214476 L 360.3130552999839 150.40595872382 L 389.7276146149181 150.46318799841083 L 419.96807375850824 149.55567478944332 L 449.7465984348075 150.155151908353 L 480.40859665136054 149.60448289485953 L 510.35989999786415 150.3937804562851 L 540.1725340457881 150.37391305351258 L 569.9897932819199 149.93481666660807 L 600.0 150.0" fill="none" opacity="0.5" stroke="#21262D" stroke-width="0.5" /><path d="M 0.0 180.0 L 30.222080200400445 179.67030919936334 L 60.407959268620566 180.49279002556486 L 89.97926459999537 180.43811612303136 L 120.24353716261753 179.73402158286353 L 149.7839678044305 180.13345421728025 L 179.75516324760312 180.02876902746468 L 209.63944249533512 179.84374301762338 L 239.9251968082687 180.3960405137747 L 269.5775519859316 179.53482734161244 L 299.65045450572705 179.71486988598346 L 330.07097991068235 180.3116733540402 L 359.57915758032 179.80304652499615 L 389.8833931732405 180.34333480078715 L 419.5285139696302 180.4729841109591 L 449.68106869269087 179.6933946252963 L 479.62972077429566 179.94563345095804 L 509.82554153495585 179.8107416231503 L 540.0952744210869 180.09780305274725 L 569.7103451233045 180.46067366377858 L 600.0 180.0" fill="none" opacity="0.5" stroke="#21262D" stroke-width="0.5" /><path d="M 0.0 210.0 L 29.659877018367805 210.22598667015967 L 60.235968253027636 209.64804089252306 L 89.85794641902959 210.32613567602675 L 120.4242944034748 210.3300581216557 L 150.02073322003392 209.52666320263023 L 179.59706415066796 209.77535062493743 L 209.78983340290287 209.9349037623566 L 240.21822585022198 209.70499301246141 L 269.9754866318207 210.03813274687585 L 300.118045098867 210.20942233518264 L 330.44758045431 209.6263349885219 L 359.8222836949334 209.7900190099103 L 389.6572444588799 209.8455922732827 L 419.9574455695733 210.07066112290383 L 449.5340789615613 209.5406202405643 L 480.26833272508384 209.95853721064404 L 510.0727165967555 209.849430977565 L 539.6753203249989 210.36653737306858 L 569.9230602650504 210.18684106454546 L 600.0 210.0" fill="none" opacity="0.5" stroke="#21262D" stroke-width="0.5" /><path d="M 0.0 240.0 L 30.376547948182385 240.03032642754403 L 59.90001454557315 240.32322703321105 L 89.75372684854509 240.1981061416048 L 120.42868443586454 239.6308699682887 L 149.99995935863225 240.13267273318561 L 180.11762080505167 240.11700334352108 L 210.41027141055727 239.80881339384536 L 239.7901746501117 239.65252129165728 L 270.2205583082503 240.03306342755678 L 300.48718146852406 240.48286889502154 L 329.76632538935075 240.07906530704966 L 360.08784032873905 240.10475630491848 L 389.80294524515796 239.79308063729314 L 420.11750300016354 239.71989757496786 L 450.33484484433416 240.00000168983146 L 479.5279992811932 240.16805609177948 L 509.88144257795403 240.2537355056939 L 540.4610917861252 240.40734475963666 L 570.4001464472526 239.5117890633906 L 600.0 240.0" fill="none" opacity="0.5" stroke="#21262D" stroke-width="0.5" /><path d="M 0.0 270.0 L 30.393863635843125 270.1280739018378 L 60.31061864582162 269.63126600038584 L 89.7785400055877 270.1863590482726 L 120.14119209852532 270.3132484748063 L 149.9290343540377 269.6645262591586 L 179.76226696864862 270.09781262477304 L 210.38254975604136 269.6221089278543 L 240.26559509824347 270.27648764245254 L 269.6241167334482 270.39377265691877 L 300.21706107359444 269.77869689575056 L 330.0263765853444 270.0809572388854 L 360.43407708704507 269.71115701826716 L 390.3286508692893 269.8861443491925 L 419.89392992607833 269.7797473681924 L 449.9162683217511 269.89351687827855 L 480.02768563157537 269.9496122302747 L 509.9806257735368 269.6115833481435 L 540.4235874155598 269.67890971858134 L 569.7453694861142 270.3137184121684 L 600.0 270.0" fill="none" opacity="0.5" stroke="#21262D" stroke-width="0.5" /><path d="M 0.0 300.0 L 30.09829238512036 299.6740866274309 L 60.29498768286095 300.0201291034569 L 90.17026400967728 300.3194672340945 L 120.11611697102434 300.23639780951623 L 149.790956079374 299.5341627771481 L 180.32326148198794 299.529733013732 L 209.59170887766794 300.122018373377 L 239.9576829439527 300.4998585024028 L 269.5044112835542 299.96578198576907 L 300.4754304948274 299.70217021713535 L 330.2573811453541 299.9125416619563 L 360.4724320819667 300.1077179937161 L 390.19387554148125 300.06450642676646 L 419.9268291846367 300.3705322035318 L 450.49910650284005 300.4471951803828 L 479.63610702898603 300.21353915356224 L 510.38628985685284 299.94842521806214 L 539.6017158731472 300.07114963057614 L 569.6421043771661 299.8678606401039 L 600.0 300.0" fill="none" opacity="0.5" stroke="#21262D" stroke-width="0.5" /><path d="M 0.0 330.0 L 30.387844338004395 330.38135452732354 L 59.997949737626286 329.6826721141299 L 90.4482593317077 330.3771698013199 L 119.58907101570757 329.75351266029196 L 150.41910746810566 330.1099234379477 L 180.4162690207416 330.26879650447745 L 209.51811870602882 329.9331126895915 L 239.89874633786144 330.0047724195906 L 269.66440991541236 330.3948687223312 L 299.51752711709867 330.04512271460163 L 330.38484834865017 330.4901608997497 L 360.3352208610083 330.32879322029237 L 389.84257637928295 329.74230787391986 L 420.0264121360699 329.90511022595314 L 449.74411850698056 330.4433244911082 L 479.80720019143524 330.15571261774505 L 510.4143826208989 329.98146127602996 L 539.7189093098189 330.22138232358293 L 570.4108263034665 329.928524670186 L 600.0 330.0" fill="none" opacity="0.5" stroke="#21262D" stroke-width="0.5" /><path d="M 0.0 360.0 L 30.070892167426802 359.75010696077663 L 60.12702838430667 360.05185050033515 L 89.76644771912744 360.3279206954919 L 119.9997263150379 360.17970144102446 L 150.15705520621034 359.6066377476568 L 180.21693038390634 360.2822117560358 L 209.89697233840968 360.31834415662587 L 239.8963325427211 360.17228645808325 L 270.13009779452494 360.1712117776868 L 299.89143814996027 359.5028080743107 L 330.481452343051 360.2297905087367 L 360.06514763166484 359.9864962747814 L 389.8677953088058 359.5751521627589 L 419.8551946736675 360.22399820353417 L 450.0382828311318 360.1783308751282 L 479.77716153896415 359.97103386767697 L 510.4137056359936 360.4289384250758 L 539.7813685881249 359.7395898614385 L 570.0274247714864 359.74873667386584 L 600.0 360.0" fill="none" opacity="0.5" stroke="#21262D" stroke-width="0.5" /><path d="M 0.0 390.0 L 29.704732618832598 390.00213714461285 L 60.09927501430492 389.97763491866164 L 89.83364497895313 389.5234351615155 L 119.96538671836646 390.1447360164654 L 150.32381465872285 389.70207691051104 L 180.38084544386763 389.69183382166034 L 210.02980213990026 390.1550079024632 L 239.63893386643738 389.5277025562093 L 269.6096111870029 389.51225836280935 L 299.8320348555314 390.0111535514354 L 329.50704881564104 390.14548617392404 L 360.4086175284319 390.2652922300252 L 390.20208379396445 390.38459200973574 L 419.626510321924 390.1043445056527 L 449.6790981735404 389.91350194198765 L 479.55823334391937 389.91739485479036 L 509.7830333949524 389.8964493120607 L 540.227902062279 390.4333492468946 L 569.9219408063169 389.932791041304 L 600.0 390.0" fill="none" opacity="0.5" stroke="#21262D" stroke-width="0.5" /><path d="M 0.0 420.0 L 29.724768928289425 419.70946712303385 L 59.51011922054532 419.89813129327115 L 90.33215376232747 420.2122940078734 L 120.10102208930434 420.1567296308194 L 149.93615678099192 420.38333932586175 L 180.20166431781493 419.97525084308 L 209.66190390397531 420.07180249503006 L 240.46711385748418 419.74286878602476 L 269.7744694105029 419.91539301715846 L 300.0037927407128 420.2133026883729 L 330.3702641379469 420.1114402286692 L 359.58341350284144 419.9215526169121 L 390.29612703466665 419.8732678676987 L 420.05915921566793 419.9043310008402 L 450.3350776547982 419.5084583589501 L 480.49127683852737 420.19533856743146 L 510.3377305723898 419.52925508842543 L 539.5387991588742 420.18390730920305 L 570.1798262000643 420.34591008716836 L 600.0 420.0" fill="none" opacity="0.5" stroke="#21262D" stroke-width="0.5" /><path d="M 0.0 450.0 L 29.646017160376946 450.39315250422334 L 60.48216902526049 450.29624925719025 L 89.85677164607254 450.14030435587455 L 119.91646276512613 450.3152426336712 L 149.5446108832689 449.6309997735501 L 180.01189769521463 450.47140054210286 L 209.52333500905547 450.01171644695523 L 240.4711975192714 450.37142449462084 L 269.7115477800434 450.4571337927048 L 299.7307381034052 449.67331277389854 L 329.8856347167092 450.10831799436164 L 359.9888409789781 449.7211583365354 L 389.51961023853084 450.2243390686364 L 419.8379883761957 449.8099266561105 L 449.9980899981608 449.51893436779244 L 479.91023188787136 449.68450151824436 L 510.46956861839334 450.1463275219674 L 540.1655267484092 449.7450726732076 L 570.0985361659771 450.4244429702049 L 600.0 450.0" fill="none" opacity="0.5" stroke="#21262D" stroke-width="0.5" /><path d="M 0.0 480.0 L 29.615624444921266 480.2266421184095 L 59.511422807330355 479.97118407495367 L 90.32462870202974 480.163837111095 L 120.05499931123954 480.45558264343106 L 150.27017584023054 479.5349691888017 L 179.90495144562783 480.1785143484399 L 209.7794834183779 479.97539760576274 L 239.63168968709334 479.71869895134415 L 270.3507292031397 480.31744731428114 L 300.4297271879071 480.4562015406892 L 330.47746188024854 479.5771400316333 L 360.18747762809136 479.68142833024984 L 390.19125874798897 479.6915331481916 L 419.87368069882035 479.96415844449314 L 450.40991096962006 480.2481881073257 L 480.0997663708268 480.13227606314183 L 510.07578387978805 479.57164078299814 L 539.5724125723591 479.9819497854187 L 569.6026418122456 480.2159245118353 L 600.0 480.0" fill="none" opacity="0.5" stroke="#21262D" stroke-width="0.5" /><path d="M 0.0 510.0 L 30.28961943701473 509.5724875208157 L 59.93714781923838 510.3604234371416 L 90.31310538791168 510.19716135457946 L 119.84122411334573 509.675445983102 L 149.97388451378907 510.0877193999673 L 180.02773024942456 509.5140482114021 L 210.48635826632568 509.6459781215383 L 240.0093782782317 509.85831330165587 L 269.71692657188726 509.9894418964558 L 299.5603905300499 509.7547975337549 L 329.53993328078946 509.9433417672993 L 359.76376223080007 509.6917520635633 L 390.2647531826169 509.8920035018208 L 420.28007639458235 510.4978608373001 L 450.4882427248379 510.38403220357606 L 480.13222943512676 510.2500734488151 L 509.9245322121851 510.0654883003923 L 539.6333759355787 509.64205184562627 L 569.9344859030115 510.22946501486723 L 600.0 510.0" fill="none" opacity="0.5" stroke="#21262D" stroke-width="0.5" /><path d="M 0.0 540.0 L 29.91794898449994 539.6016713379238 L 59.789893881745954 540.0488282417969 L 90.36366068436145 540.0254283842008 L 119.60563335753406 540.1540805201787 L 149.95079599068515 539.6908282630608 L 180.19306367921394 539.5177610694375 L 210.44662018383897 539.5736355189769 L 240.40390471212967 539.9265363499617 L 270.4461518331351 540.0555100066845 L 300.11567047380555 539.8640346304819 L 329.9228808429937 539.563512830658 L 359.80735324950183 540.2678350009957 L 389.98266026184655 540.496224323395 L 420.42891722489304 540.0631061800835 L 450.1747603791222 540.4054986016625 L 479.95144975508697 540.3406395579411 L 510.3516816008689 540.1479583847689 L 540.3565092018852 540.41364339056 L 569.6579154506294 540.3782533309494 L 600.0 540.0" fill="none" opacity="0.5" stroke="#21262D" stroke-width="0.5" /><path d="M 0.0 570.0 L 29.810259530579312 570.2681985807142 L 60.483037561617756 570.2133069720777 L 89.74014619932218 569.8901072570285 L 119.75808663642998 569.8503001918459 L 149.73426910158386 570.0726635254636 L 179.73608132766546 569.7765904591854 L 209.51951795564344 569.5977300474424 L 239.98097915129577 570.497850139073 L 269.91947109986893 569.8894748674799 L 299.5328149374787 570.0742277061048 L 330.014502629736 570.2240631062543 L 359.5972663371284 570.1531609778566 L 389.6305872250496 569.8128352381447 L 419.8085137747345 569.9824200674481 L 449.72843662967057 570.2313559566699 L 480.17948276987744 570.225325629034 L 509.69674175358443 570.3891335007118 L 540.0202240654817 570.2871697155144 L 570.3875201566985 570.4786313673623 L 600.0 570.0" fill="none" opacity="0.5" stroke="#21262D" stroke-width="0.5" /><path d="M 0.0 600.0 L 30.230505682277077 600.4719050206209 L 59.91741936894567 600.4008739530781 L 89.810209186786 599.5491506925636 L 119.94199224200946 600.2255584453244 L 150.1362164589116 600.2212478475637 L 180.05563471973178 599.9153482076758 L 209.55878142438172 599.992391764113 L 240.08176250813392 599.8785809773902 L 269.5527533597214 599.9541194954389 L 299.99655294893574 600.2212830978283 L 329.5579089215533 599.7819739498083 L 360.11618094117114 600.3332085973904 L 389.64750990023595 600.4360414169129 L 420.41636909196023 600.4357459646637 L 449.5868427423444 599.9675177680411 L 479.956364445479 599.6932089548761 L 509.5657893732329 600.0970607441294 L 540.2251811228931 600.1076055967195 L 570.4841353612377 599.6492367501469 L 600.0 600.0" fill="none" opacity="0.5" stroke="#21262D" stroke-width="0.5" /><circle cx="300" cy="280" fill="none" opacity="0.6" r="200" stroke="#00F0FF" stroke-dasharray="10,5" stroke-width="2" /><circle cx="300" cy="280" fill="none" opacity="0.8" r="160" stroke="#FF006E" stroke-width="3" /><path d="M 300 200 L 240 320 L 300 300 L 360 320 Z" fill="none" stroke="#00F0FF" stroke-linecap="round" stroke-linejoin="round" stroke-width="4" /><line opacity="0.5" stroke="#00F0FF" stroke-width="2" x1="300" x2="300" y1="200" y2="300" /><path d="M 275 245 L 287.0 260 L 275 275 L 263.0 260 Z" fill="none" stroke="#FFBE0B" stroke-width="2" /><circle cx="275" cy="260" fill="#FFBE0B" r="5" /><path d="M 325 245 L 337.0 260 L 325 275 L 313.0 260 Z" fill="none" stroke="#FFBE0B" stroke-width="2" /><circle cx="325" cy="260" fill="#FFBE0B" r="5" /><path d="M 240 300 L 200 260 L 210 290 L 230 310" fill="none" stroke="#FF006E" stroke-linecap="round" stroke-width="3" /><path d="M 360 300 L 400 260 L 390 290 L 370 310" fill="none" stroke="#FF006E" stroke-linecap="round" stroke-width="3" /><path d="M 280 200 Q 260 160 240 170" fill="none" stroke="#8B949E" stroke-dasharray="5,3" stroke-width="2" /><path d="M 320 200 Q 340 160 360 170" fill="none" stroke="#8B949E" stroke-dasharray="5,3" stroke-width="2" /><text fill="#00F0FF" font-family="Courier New, monospace" font-size="48" font-weight="bold" text-anchor="middle" x="300" y="520">S H R I M P</text><text fill="#FF006E" font-family="Courier New, monospace" font-size="24" text-anchor="middle" x="300" y="565">C L A N</text><text fill="#8B949E" font-family="Courier New, monospace" font-size="12" text-anchor="middle" x="300" y="590">v1.0</text><path d="M 20 20 L 60 20 L 60 30 L 30 30 L 30 60 L 20 60 Z" fill="none" opacity="0.5" stroke="#00F0FF" stroke-width="1" /><path d="M 580 20 L 540 20 L 540 30 L 570 30 L 570 60 L 580 60 Z" fill="none" opacity="0.5" stroke="#00F0FF" stroke-width="1" /><path d="M 20 580 L 60 580 L 60 570 L 30 570 L 30 540 L 20 540 Z" fill="none" opacity="0.5" stroke="#00F0FF" stroke-width="1" /><path d="M 580 580 L 540 580 L 540 570 L 570 570 L 570 540 L 580 540 Z" fill="none" opacity="0.5" stroke="#00F0FF" stroke-width="1" /></svg>