<?xml version="1.0" encoding="utf-8" ?>
<svg baseProfile="tiny" height="400" version="1.2" width="700" xmlns="http://www.w3.org/2000/svg" xmlns:ev="http://www.w3.org/2001/xml-events" xmlns:xlink="http://www.w3.org/1999/xlink"><defs /><text fill="#2C3E50" font-family="Arial, sans-serif" font-size="22" font-weight="bold" text-anchor="middle" x="350" y="40">三叉戟工具功能矩阵</text><rect fill="#FF6B9D" height="40" stroke="white" stroke-width="1" width="200" x="50" y="80" /><text fill="white" font-family="Arial, sans-serif" font-size="14" font-weight="bold" text-anchor="middle" x="150.0" y="105">功能</text><rect fill="#FF6B9D" height="40" stroke="white" stroke-width="1" width="150" x="250" y="80" /><text fill="white" font-family="Arial, sans-serif" font-size="14" font-weight="bold" text-anchor="middle" x="325.0" y="105">🦞 部署虾</text><rect fill="#FF6B9D" height="40" stroke="white" stroke-width="1" width="150" x="400" y="80" /><text fill="white" font-family="Arial, sans-serif" font-size="14" font-weight="bold" text-anchor="middle" x="475.0" y="105">💾 备份虾</text><rect fill="#FF6B9D" height="40" stroke="white" stroke-width="1" width="150" x="550" y="80" /><text fill="white" font-family="Arial, sans-serif" font-size="14" font-weight="bold" text-anchor="middle" x="625.0" y="105">💥 卸载虾</text><rect fill="#F8F9FA" height="40" stroke="#E0E0E0" stroke-width="1" width="200" x="50" y="120" /><text fill="#2C3E50" font-family="Arial, sans-serif" font-size="14" text-anchor="middle" x="150.0" y="145">安装 OpenClaw</text><rect fill="#4ECDC4" height="40" stroke="#E0E0E0" stroke-width="1" width="150" x="250" y="120" /><text fill="#2C3E50" font-family="Arial, sans-serif" font-size="14" text-anchor="middle" x="325.0" y="145">✅</text><rect fill="#F8F9FA" height="40" stroke="#E0E0E0" stroke-width="1" width="150" x="400" y="120" /><text fill="#2C3E50" font-family="Arial, sans-serif" font-size="14" text-anchor="middle" x="475.0" y="145">❌</text><rect fill="#F8F9FA" height="40" stroke="#E0E0E0" stroke-width="1" width="150" x="550" y="120" /><text fill="#2C3E50" font-family="Arial, sans-serif" font-size="14" text-anchor="middle" x="625.0" y="145">❌</text><rect fill="#F8F9FA" height="40" stroke="#E0E0E0" stroke-width="1" width="200" x="50" y="160" /><text fill="#2C3E50" font-family="Arial, sans-serif" font-size="14" text-anchor="middle" x="150.0" y="185">配置飞书</text><rect fill="#4ECDC4" height="40" stroke="#E0E0E0" stroke-width="1" width="150" x="250" y="160" /><text fill="#2C3E50" font-family="Arial, sans-serif" font-size="14" text-anchor="middle" x="325.0" y="185">✅</text><rect fill="#F8F9FA" height="40" stroke="#E0E0E0" stroke-width="1" width="150" x="400" y="160" /><text fill="#2C3E50" font-family="Arial, sans-serif" font-size="14" text-anchor="middle" x="475.0" y="185">❌</text><rect fill="#F8F9FA" height="40" stroke="#E0E0E0" stroke-width="1" width="150" x="550" y="160" /><text fill="#2C3E50" font-family="Arial, sans-serif" font-size="14" text-anchor="middle" x="625.0" y="185">❌</text><rect fill="#F8F9FA" height="40" stroke="#E0E0E0" stroke-width="1" width="200" x="50" y="200" /><text fill="#2C3E50" font-family="Arial, sans-serif" font-size="14" text-anchor="middle" x="150.0" y="225">创建快照</text><rect fill="#F8F9FA" height="40" stroke="#E0E0E0" stroke-width="1" width="150" x="250" y="200" /><text fill="#2C3E50" font-family="Arial, sans-serif" font-size="14" text-anchor="middle" x="325.0" y="225">❌</text><rect fill="#4ECDC4" height="40" stroke="#E0E0E0" stroke-width="1" width="150" x="400" y="200" /><text fill="#2C3E50" font-family="Arial, sans-serif" font-size="14" text-anchor="middle" x="475.0" y="225">✅</text><rect fill="#4ECDC4" height="40" stroke="#E0E0E0" stroke-width="1" width="150" x="550" y="200" /><text fill="#2C3E50" font-family="Arial, sans-serif" font-size="14" text-anchor="middle" x="625.0" y="225">✅</text><rect fill="#F8F9FA" height="40" stroke="#E0E0E0" stroke-width="1" width="200" x="50" y="240" /><text fill="#2C3E50" font-family="Arial, sans-serif" font-size="14" text-anchor="middle" x="150.0" y="265">恢复快照</text><rect fill="#F8F9FA" height="40" stroke="#E0E0E0" stroke-width="1" width="150" x="250" y="240" /><text fill="#2C3E50" font-family="Arial, sans-serif" font-size="14" text-anchor="middle" x="325.0" y="265">❌</text><rect fill="#4ECDC4" height="40" stroke="#E0E0E0" stroke-width="1" width="150" x="400" y="240" /><text fill="#2C3E50" font-family="Arial, sans-serif" font-size="14" text-anchor="middle" x="475.0" y="265">✅</text><rect fill="#F8F9FA" height="40" stroke="#E0E0E0" stroke-width="1" width="150" x="550" y="240" /><text fill="#2C3E50" font-family="Arial, sans-serif" font-size="14" text-anchor="middle" x="625.0" y="265">❌</text><rect fill="#F8F9FA" height="40" stroke="#E0E0E0" stroke-width="1" width="200" x="50" y="280" /><text fill="#2C3E50" font-family="Arial, sans-serif" font-size="14" text-anchor="middle" x="150.0" y="305">卸载清理</text><rect fill="#F8F9FA" height="40" stroke="#E0E0E0" stroke-width="1" width="150" x="250" y="280" /><text fill="#2C3E50" font-family="Arial, sans-serif" font-size="14" text-anchor="middle" x="325.0" y="305">❌</text><rect fill="#F8F9FA" height="40" stroke="#E0E0E0" stroke-width="1" width="150" x="400" y="280" /><text fill="#2C3E50" font-family="Arial, sans-serif" font-size="14" text-anchor="middle" x="475.0" y="305">❌</text><rect fill="#4ECDC4" height="40" stroke="#E0E0E0" stroke-width="1" width="150" x="550" y="280" /><text fill="#2C3E50" font-family="Arial, sans-serif" font-size="14" text-anchor="middle" x="625.0" y="305">✅</text><rect fill="#F8F9FA" height="40" stroke="#E0E0E0" stroke-width="1" width="200" x="50" y="320" /><text fill="#2C3E50" font-family="Arial, sans-serif" font-size="14" text-anchor="middle" x="150.0" y="345">导出配置</text><rect fill="#F8F9FA" height="40" stroke="#E0E0E0" stroke-width="1" width="150" x="250" y="320" /><text fill="#2C3E50" font-family="Arial, sans-serif" font-size="14" text-anchor="middle" x="325.0" y="345">❌</text><rect fill="#4ECDC4" height="40" stroke="#E0E0E0" stroke-width="1" width="150" x="400" y="320" /><text fill="#2C3E50" font-family="Arial, sans-serif" font-size="14" text-anchor="middle" x="475.0" y="345">✅</text><rect fill="#4ECDC4" height="40" stroke="#E0E0E0" stroke-width="1" width="150" x="550" y="320" /><text fill="#2C3E50" font-family="Arial, sans-serif" font-size="14" text-anchor="middle" x="625.0" y="345">✅</text><rect fill="#F8F9FA" height="40" stroke="#E0E0E0" stroke-width="1" width="200" x="50" y="360" /><text fill="#2C3E50" font-family="Arial, sans-serif" font-size="14" text-anchor="middle" x="150.0" y="385">导入配置</text><rect fill="#F8F9FA" height="40" stroke="#E0E0E0" stroke-width="1" width="150" x="250" y="360" /><text fill="#2C3E50" font-family="Arial, sans-serif" font-size="14" text-anchor="middle" x="325.0" y="385">❌</text><rect fill="#4ECDC4" height="40" stroke="#E0E0E0" stroke-width="1" width="150" x="400" y="360" /><text fill="#2C3E50" font-family="Arial, sans-serif" font-size="14" text-anchor="middle" x="475.0" y="385">✅</text><rect fill="#F8F9FA" height="40" stroke="#E0E0E0" stroke-width="1" width="150" x="550" y="360" /><text fill="#2C3E50" font-family="Arial, sans-serif" font-size="14" text-anchor="middle" x="625.0" y="385">❌</text></svg>