<?xml version="1.0" encoding="utf-8" ?>
<svg baseProfile="tiny" height="600" version="1.2" width="800" xmlns="http://www.w3.org/2000/svg" xmlns:ev="http://www.w3.org/2001/xml-events" xmlns:xlink="http://www.w3.org/1999/xlink"><defs /><rect fill="#F8F9FA" height="600" rx="10" width="800" x="0" y="0" /><text fill="#2C3E50" font-family="Arial, sans-serif" font-size="24" font-weight="bold" text-anchor="middle" x="400" y="40">虾族生态 - 用户使用流程</text><rect fill="#FFD93D" height="60" opacity="0.2" rx="8" stroke="#FFD93D" stroke-width="2" width="120" x="40" y="70" /><text font-size="24" text-anchor="middle" x="100" y="95">👤</text><text fill="#2C3E50" font-family="Arial, sans-serif" font-size="12" text-anchor="middle" x="100" y="120">新用户</text><rect fill="#FF6B9D" height="60" opacity="0.2" rx="8" stroke="#FF6B9D" stroke-width="2" width="120" x="240" y="70" /><text font-size="24" text-anchor="middle" x="300" y="95">🦞</text><text fill="#2C3E50" font-family="Arial, sans-serif" font-size="12" text-anchor="middle" x="300" y="120">部署虾
ofd deploy</text><rect fill="#FFD93D" height="60" opacity="0.2" rx="8" stroke="#FFD93D" stroke-width="2" width="120" x="440" y="70" /><text font-size="24" text-anchor="middle" x="500" y="95">💻</text><text fill="#2C3E50" font-family="Arial, sans-serif" font-size="12" text-anchor="middle" x="500" y="120">使用 OpenClaw</text><rect fill="#4ECDC4" height="60" opacity="0.2" rx="8" stroke="#4ECDC4" stroke-width="2" width="120" x="440" y="220" /><text font-size="24" text-anchor="middle" x="500" y="245">💾</text><text fill="#2C3E50" font-family="Arial, sans-serif" font-size="12" text-anchor="middle" x="500" y="270">备份虾
ocs create</text><rect fill="#FFD93D" height="60" opacity="0.2" rx="8" stroke="#FFD93D" stroke-width="2" width="120" x="440" y="370" /><text font-size="24" text-anchor="middle" x="500" y="395">💥</text><text fill="#2C3E50" font-family="Arial, sans-serif" font-size="12" text-anchor="middle" x="500" y="420">玩坏了/换机器</text><rect fill="#FF1744" height="60" opacity="0.2" rx="8" stroke="#FF1744" stroke-width="2" width="120" x="240" y="370" /><text font-size="24" text-anchor="middle" x="300" y="395">💥</text><text fill="#2C3E50" font-family="Arial, sans-serif" font-size="12" text-anchor="middle" x="300" y="420">卸载虾
ocu</text><rect fill="#4ECDC4" height="60" opacity="0.2" rx="8" stroke="#4ECDC4" stroke-width="2" width="120" x="40" y="370" /><text font-size="24" text-anchor="middle" x="100" y="395">💾</text><text fill="#2C3E50" font-family="Arial, sans-serif" font-size="12" text-anchor="middle" x="100" y="420">备份虾
ocs restore</text><rect fill="#FFD93D" height="60" opacity="0.2" rx="8" stroke="#FFD93D" stroke-width="2" width="120" x="40" y="220" /><text font-size="24" text-anchor="middle" x="100" y="245">✅</text><text fill="#2C3E50" font-family="Arial, sans-serif" font-size="12" text-anchor="middle" x="100" y="270">恢复原样</text><line stroke="#95A5A6" stroke-dasharray="5,3" stroke-width="2" x1="100" x2="300" y1="100" y2="100" /><text fill="#95A5A6" font-family="Arial, sans-serif" font-size="10" text-anchor="middle" x="200.0" y="95.0">开始</text><line stroke="#95A5A6" stroke-dasharray="5,3" stroke-width="2" x1="300" x2="500" y1="100" y2="100" /><text fill="#95A5A6" font-family="Arial, sans-serif" font-size="10" text-anchor="middle" x="400.0" y="95.0">部署完成</text><line stroke="#95A5A6" stroke-dasharray="5,3" stroke-width="2" x1="500" x2="500" y1="100" y2="250" /><text fill="#95A5A6" font-family="Arial, sans-serif" font-size="10" text-anchor="middle" x="500.0" y="170.0">定期备份</text><line stroke="#95A5A6" stroke-dasharray="5,3" stroke-width="2" x1="500" x2="500" y1="100" y2="400" /><text fill="#95A5A6" font-family="Arial, sans-serif" font-size="10" text-anchor="middle" x="500.0" y="245.0">遇到问题</text><line stroke="#95A5A6" stroke-dasharray="5,3" stroke-width="2" x1="500" x2="100" y1="250" y2="400" /><text fill="#95A5A6" font-family="Arial, sans-serif" font-size="10" text-anchor="middle" x="300.0" y="320.0">需要恢复</text><line stroke="#95A5A6" stroke-dasharray="5,3" stroke-width="2" x1="500" x2="300" y1="400" y2="400" /><text fill="#95A5A6" font-family="Arial, sans-serif" font-size="10" text-anchor="middle" x="400.0" y="395.0">卸载</text><line stroke="#95A5A6" stroke-dasharray="5,3" stroke-width="2" x1="300" x2="100" y1="400" y2="400" /><text fill="#95A5A6" font-family="Arial, sans-serif" font-size="10" text-anchor="middle" x="200.0" y="395.0">自动快照</text><line stroke="#95A5A6" stroke-dasharray="5,3" stroke-width="2" x1="100" x2="100" y1="400" y2="250" /><text fill="#95A5A6" font-family="Arial, sans-serif" font-size="10" text-anchor="middle" x="100.0" y="320.0">恢复成功</text><line stroke="#95A5A6" stroke-dasharray="5,3" stroke-width="2" x1="100" x2="300" y1="250" y2="100" /><text fill="#95A5A6" font-family="Arial, sans-serif" font-size="10" text-anchor="middle" x="200.0" y="170.0">重新开始</text><rect fill="#FF6B9D" height="15" rx="3" width="15" x="200" y="550" /><text fill="#2C3E50" font-family="Arial, sans-serif" font-size="12" x="225" y="562">🦞 部署</text><rect fill="#4ECDC4" height="15" rx="3" width="15" x="350" y="550" /><text fill="#2C3E50" font-family="Arial, sans-serif" font-size="12" x="375" y="562">💾 备份</text><rect fill="#FF1744" height="15" rx="3" width="15" x="500" y="550" /><text fill="#2C3E50" font-family="Arial, sans-serif" font-size="12" x="525" y="562">💥 卸载</text></svg>