<?xml version="1.0" encoding="utf-8" ?>
<svg baseProfile="tiny" height="700" version="1.2" width="900" xmlns="http://www.w3.org/2000/svg" xmlns:ev="http://www.w3.org/2001/xml-events" xmlns:xlink="http://www.w3.org/1999/xlink"><defs /><rect fill="#0D1117" height="700" width="900" x="0" y="0" /><line opacity="0.3" stroke="#21262D" stroke-width="0.5" x1="0" x2="0" y1="0" y2="700" /><line opacity="0.3" stroke="#21262D" stroke-width="0.5" x1="40" x2="40" y1="0" y2="700" /><line opacity="0.3" stroke="#21262D" stroke-width="0.5" x1="80" x2="80" y1="0" y2="700" /><line opacity="0.3" stroke="#21262D" stroke-width="0.5" x1="120" x2="120" y1="0" y2="700" /><line opacity="0.3" stroke="#21262D" stroke-width="0.5" x1="160" x2="160" y1="0" y2="700" /><line opacity="0.3" stroke="#21262D" stroke-width="0.5" x1="200" x2="200" y1="0" y2="700" /><line opacity="0.3" stroke="#21262D" stroke-width="0.5" x1="240" x2="240" y1="0" y2="700" /><line opacity="0.3" stroke="#21262D" stroke-width="0.5" x1="280" x2="280" y1="0" y2="700" /><line opacity="0.3" stroke="#21262D" stroke-width="0.5" x1="320" x2="320" y1="0" y2="700" /><line opacity="0.3" stroke="#21262D" stroke-width="0.5" x1="360" x2="360" y1="0" y2="700" /><line opacity="0.3" stroke="#21262D" stroke-width="0.5" x1="400" x2="400" y1="0" y2="700" /><line opacity="0.3" stroke="#21262D" stroke-width="0.5" x1="440" x2="440" y1="0" y2="700" /><line opacity="0.3" stroke="#21262D" stroke-width="0.5" x1="480" x2="480" y1="0" y2="700" /><line opacity="0.3" stroke="#21262D" stroke-width="0.5" x1="520" x2="520" y1="0" y2="700" /><line opacity="0.3" stroke="#21262D" stroke-width="0.5" x1="560" x2="560" y1="0" y2="700" /><line opacity="0.3" stroke="#21262D" stroke-width="0.5" x1="600" x2="600" y1="0" y2="700" /><line opacity="0.3" stroke="#21262D" stroke-width="0.5" x1="640" x2="640" y1="0" y2="700" /><line opacity="0.3" stroke="#21262D" stroke-width="0.5" x1="680" x2="680" y1="0" y2="700" /><line opacity="0.3" stroke="#21262D" stroke-width="0.5" x1="720" x2="720" y1="0" y2="700" /><line opacity="0.3" stroke="#21262D" stroke-width="0.5" x1="760" x2="760" y1="0" y2="700" /><line opacity="0.3" stroke="#21262D" stroke-width="0.5" x1="800" x2="800" y1="0" y2="700" /><line opacity="0.3" stroke="#21262D" stroke-width="0.5" x1="840" x2="840" y1="0" y2="700" /><line opacity="0.3" stroke="#21262D" stroke-width="0.5" x1="880" x2="880" y1="0" y2="700" /><line opacity="0.3" stroke="#21262D" stroke-width="0.5" x1="0" x2="900" y1="0" y2="0" /><line opacity="0.3" stroke="#21262D" stroke-width="0.5" x1="0" x2="900" y1="40" y2="40" /><line opacity="0.3" stroke="#21262D" stroke-width="0.5" x1="0" x2="900" y1="80" y2="80" /><line opacity="0.3" stroke="#21262D" stroke-width="0.5" x1="0" x2="900" y1="120" y2="120" /><line opacity="0.3" stroke="#21262D" stroke-width="0.5" x1="0" x2="900" y1="160" y2="160" /><line opacity="0.3" stroke="#21262D" stroke-width="0.5" x1="0" x2="900" y1="200" y2="200" /><line opacity="0.3" stroke="#21262D" stroke-width="0.5" x1="0" x2="900" y1="240" y2="240" /><line opacity="0.3" stroke="#21262D" stroke-width="0.5" x1="0" x2="900" y1="280" y2="280" /><line opacity="0.3" stroke="#21262D" stroke-width="0.5" x1="0" x2="900" y1="320" y2="320" /><line opacity="0.3" stroke="#21262D" stroke-width="0.5" x1="0" x2="900" y1="360" y2="360" /><line opacity="0.3" stroke="#21262D" stroke-width="0.5" x1="0" x2="900" y1="400" y2="400" /><line opacity="0.3" stroke="#21262D" stroke-width="0.5" x1="0" x2="900" y1="440" y2="440" /><line opacity="0.3" stroke="#21262D" stroke-width="0.5" x1="0" x2="900" y1="480" y2="480" /><line opacity="0.3" stroke="#21262D" stroke-width="0.5" x1="0" x2="900" y1="520" y2="520" /><line opacity="0.3" stroke="#21262D" stroke-width="0.5" x1="0" x2="900" y1="560" y2="560" /><line opacity="0.3" stroke="#21262D" stroke-width="0.5" x1="0" x2="900" y1="600" y2="600" /><line opacity="0.3" stroke="#21262D" stroke-width="0.5" x1="0" x2="900" y1="640" y2="640" /><line opacity="0.3" stroke="#21262D" stroke-width="0.5" x1="0" x2="900" y1="680" y2="680" /><text fill="#00F0FF" font-family="Courier New, monospace" font-size="32" font-weight="bold" text-anchor="middle" x="450.0" y="60">虾族生态工作流</text><text fill="#8B949E" font-family="Courier New, monospace" font-size="14" text-anchor="middle" x="450.0" y="90">Shrimp Clan Ecosystem Workflow</text><circle cx="450.0" cy="140" fill="none" r="35" stroke="#E6EDF3" stroke-width="2" /><text fill="#E6EDF3" font-family="Courier New, monospace" font-size="11" font-weight="bold" text-anchor="middle" x="450.0" y="140">👤 用户</text><rect fill="none" height="70" rx="8" stroke="#00F0FF" stroke-width="2" width="110" x="145.0" y="195" /><text fill="#00F0FF" font-family="Courier New, monospace" font-size="11" font-weight="bold" text-anchor="middle" x="200.0" y="222">🦞 部署</text><text fill="#8B949E" font-family="Courier New, monospace" font-size="10" font-weight="normal" text-anchor="middle" x="200.0" y="238">ofd deploy</text><rect fill="none" height="70" rx="8" stroke="#E6EDF3" stroke-width="2" width="110" x="395.0" y="285" /><text fill="#E6EDF3" font-family="Courier New, monospace" font-size="11" font-weight="bold" text-anchor="middle" x="450.0" y="312">💻 使用</text><text fill="#8B949E" font-family="Courier New, monospace" font-size="10" font-weight="normal" text-anchor="middle" x="450.0" y="328">OpenClaw</text><rect fill="none" height="70" rx="8" stroke="#FFBE0B" stroke-width="2" width="110" x="645.0" y="195" /><text fill="#FFBE0B" font-family="Courier New, monospace" font-size="11" font-weight="bold" text-anchor="middle" x="700.0" y="222">💾 备份</text><text fill="#8B949E" font-family="Courier New, monospace" font-size="10" font-weight="normal" text-anchor="middle" x="700.0" y="238">ocs create</text><path d="M 450.0 370 L 500.0 410 L 450.0 450 L 400.0 410 Z" fill="none" stroke="#FF006E" stroke-width="2" /><text fill="#FF006E" font-family="Courier New, monospace" font-size="11" font-weight="bold" text-anchor="middle" x="450.0" y="402">💥 遇到问题</text><text fill="#8B949E" font-family="Courier New, monospace" font-size="10" font-weight="normal" text-anchor="middle" x="450.0" y="418">重装/迁移</text><rect fill="none" height="70" rx="8" stroke="#FF006E" stroke-width="2" width="110" x="145.0" y="375" /><text fill="#FF006E" font-family="Courier New, monospace" font-size="11" font-weight="bold" text-anchor="middle" x="200.0" y="402">💥 卸载</text><text fill="#8B949E" font-family="Courier New, monospace" font-size="10" font-weight="normal" text-anchor="middle" x="200.0" y="418">ocu</text><rect fill="none" height="70" rx="8" stroke="#FFBE0B" stroke-width="2" width="110" x="645.0" y="375" /><text fill="#FFBE0B" font-family="Courier New, monospace" font-size="11" font-weight="bold" text-anchor="middle" x="700.0" y="402">💾 恢复</text><text fill="#8B949E" font-family="Courier New, monospace" font-size="10" font-weight="normal" text-anchor="middle" x="700.0" y="418">ocs restore</text><circle cx="450.0" cy="500" fill="none" r="35" stroke="#00F0FF" stroke-width="2" /><text fill="#00F0FF" font-family="Courier New, monospace" font-size="11" font-weight="bold" text-anchor="middle" x="450.0" y="500">✅ 完成</text><line opacity="0.7" stroke="#00F0FF" stroke-width="1.5" x1="450.0" x2="200.0" y1="175" y2="195" /><path d="M 208.0 191 L 200.0 195 L 208.0 199" fill="none" stroke="#00F0FF" stroke-width="1.5" /><text fill="#8B949E" font-family="Courier New, monospace" font-size="9" text-anchor="middle" x="325.0" y="180.0">开始</text><line opacity="0.7" stroke="#00F0FF" stroke-width="1.5" x1="255.0" x2="395.0" y1="230" y2="285" /><path d="M 387.0 281 L 395.0 285 L 387.0 289" fill="none" stroke="#00F0FF" stroke-width="1.5" /><text fill="#8B949E" font-family="Courier New, monospace" font-size="9" text-anchor="middle" x="325.0" y="252.5">部署</text><line opacity="0.7" stroke="#FFBE0B" stroke-width="1.5" x1="505.0" x2="645.0" y1="320" y2="265" /><path d="M 637.0 261 L 645.0 265 L 637.0 269" fill="none" stroke="#FFBE0B" stroke-width="1.5" /><text fill="#8B949E" font-family="Courier New, monospace" font-size="9" text-anchor="middle" x="575.0" y="287.5">备份</text><line opacity="0.7" stroke="#FFBE0B" stroke-width="1.5" x1="700.0" x2="700.0" y1="265" y2="375" /><path d="M 696.0 367 L 700.0 375 L 704.0 367" fill="none" stroke="#FFBE0B" stroke-width="1.5" /><text fill="#8B949E" font-family="Courier New, monospace" font-size="9" text-anchor="middle" x="700.0" y="315.0">恢复</text><line opacity="0.7" stroke="#FF006E" stroke-width="1.5" x1="450.0" x2="450.0" y1="355" y2="370" /><path d="M 446.0 362 L 450.0 370 L 454.0 362" fill="none" stroke="#FF006E" stroke-width="1.5" /><text fill="#8B949E" font-family="Courier New, monospace" font-size="9" text-anchor="middle" x="450.0" y="357.5">问题</text><line opacity="0.7" stroke="#FF006E" stroke-width="1.5" x1="400.0" x2="255.0" y1="410" y2="410" /><path d="M 263.0 406 L 255.0 410 L 263.0 414" fill="none" stroke="#FF006E" stroke-width="1.5" /><text fill="#8B949E" font-family="Courier New, monospace" font-size="9" text-anchor="middle" x="327.5" y="405.0">卸载</text><line opacity="0.7" stroke="#FF006E" stroke-width="1.5" x1="255.0" x2="645.0" y1="410" y2="410" /><path d="M 637.0 406 L 645.0 410 L 637.0 414" fill="none" stroke="#FF006E" stroke-width="1.5" /><text fill="#8B949E" font-family="Courier New, monospace" font-size="9" text-anchor="middle" x="450.0" y="405.0">快照</text><line opacity="0.7" stroke="#FFBE0B" stroke-width="1.5" x1="700.0" x2="505.0" y1="445" y2="500" /><path d="M 513.0 496 L 505.0 500 L 513.0 504" fill="none" stroke="#FFBE0B" stroke-width="1.5" /><text fill="#8B949E" font-family="Courier New, monospace" font-size="9" text-anchor="middle" x="602.5" y="467.5">完成</text><line opacity="0.7" stroke="#00F0FF" stroke-width="1.5" x1="450.0" x2="450.0" y1="450" y2="465" /><path d="M 446.0 457 L 450.0 465 L 454.0 457" fill="none" stroke="#00F0FF" stroke-width="1.5" /><text fill="#8B949E" font-family="Courier New, monospace" font-size="9" text-anchor="middle" x="450.0" y="452.5">正常</text><rect fill="none" height="12" stroke="#00F0FF" stroke-width="2" width="12" x="300.0" y="640" /><text fill="#E6EDF3" font-family="Courier New, monospace" font-size="11" x="320.0" y="650">🦞 部署</text><rect fill="none" height="12" stroke="#FFBE0B" stroke-width="2" width="12" x="450.0" y="640" /><text fill="#E6EDF3" font-family="Courier New, monospace" font-size="11" x="470.0" y="650">💾 备份</text><rect fill="none" height="12" stroke="#FF006E" stroke-width="2" width="12" x="600.0" y="640" /><text fill="#E6EDF3" font-family="Courier New, monospace" font-size="11" x="620.0" y="650">💥 卸载</text><text fill="#8B949E" font-family="Courier New, monospace" font-size="10" text-anchor="middle" x="450.0" y="680">OpenClaw Ecosystem Toolkit</text></svg>